# xmcd CD database file
# Copyright (C) 1995-1998 Ti Kan
#
# Track frame offsets:
#	150
#	17063
#	30881
#	51815
#	73390
#	89086
#	109488
#	129288
#	144082
#	156845
#	177234
#	194102
#	210155
#
# Disc length: 3028 seconds
#
# Revision: 1
# Processed by: cddbd v1.4PL0 Copyright (c) Steve Scherf et al.
# Submitted via: CDex 1.30Release
#
DISCID=b50bd20d
DTITLE=Kevin Deal - The Lawless
DYEAR=2003
DGENRE=Country
TTITLE0=Quicker Than The Eye
TTITLE1=You Ain't Nobody
TTITLE2=Lawless
TTITLE3=Freedom For Mary
TTITLE4=Gideon
TTITLE5=Mississippi Kid
TTITLE6=Pick 'Em To Win
TTITLE7=Lonesome Whistle
TTITLE8=Back Slidin' Man
TTITLE9=Pieces Of My Life
TTITLE10=Asleep At The Wheel
TTITLE11=Diesel
TTITLE12=Road To Ruin
EXTD=YEAR: 2003 ID3G:   2
EXTT0=
EXTT1=
EXTT2=
EXTT3=
EXTT4=
EXTT5=
EXTT6=
EXTT7=
EXTT8=
EXTT9=
EXTT10=
EXTT11=
EXTT12=
PLAYORDER=
